<?xml version="1.0" encoding="utf-8"?>
<!-- Generator: Adobe Illustrator 15.1.0, SVG Export Plug-In . SVG Version: 6.00 Build 0)  -->
<!DOCTYPE svg PUBLIC "-//W3C//DTD SVG 1.1//EN" "http://www.w3.org/Graphics/SVG/1.1/DTD/svg11.dtd">
<svg version="1.1" id="Layer_1" xmlns="http://www.w3.org/2000/svg" xmlns:xlink="http://www.w3.org/1999/xlink" x="0px" y="0px"
	 width="144px" height="144px" viewBox="0 0 144 144" enable-background="new 0 0 144 144" xml:space="preserve">
<path d="M71.8,20.319c-28.581,0-51.753,23.172-51.753,51.753c0,28.587,23.172,51.752,51.753,51.752
	c28.583,0,51.752-23.165,51.752-51.752C123.553,43.491,100.384,20.319,71.8,20.319z M82.889,72.091h-7.253
	c0,11.585,0,25.857,0,25.857H64.889c0,0,0-14.126,0-25.857h-5.11v-9.135h5.11v-5.914c0-4.232,2.01-10.847,10.845-10.847l7.96,0.032
	v8.87c0,0-4.841,0-5.777,0c-0.94,0-2.28,0.468-2.28,2.488v5.371h8.194L82.889,72.091z"/>
</svg>
