<?xml version="1.0" encoding="utf-8"?>
<!-- Generator: Adobe Illustrator 15.1.0, SVG Export Plug-In . SVG Version: 6.00 Build 0)  -->
<!DOCTYPE svg PUBLIC "-//W3C//DTD SVG 1.1//EN" "http://www.w3.org/Graphics/SVG/1.1/DTD/svg11.dtd">
<svg version="1.1" id="Layer_1" xmlns="http://www.w3.org/2000/svg" xmlns:xlink="http://www.w3.org/1999/xlink" x="0px" y="0px"
	 width="360px" height="360px" viewBox="0 0 360 360" enable-background="new 0 0 360 360" xml:space="preserve">
<g>
	<g>
		<path fill="#FFFFFF" d="M136.639,74.357c2.096,0,6.418,0.917,12.967,2.881c3.537,1.703,5.502,2.488,6.025,2.488
			c9.562-1.833,15.063-2.881,17.029-2.881h2.095c2.75,0,10.479,1.179,23.185,3.929h1.049c7.072-3.274,12.05-4.847,14.671-4.847
			l0.394,0.787v0.131c-0.132,0.262-2.357,1.964-6.943,4.846c-0.784,0.917-1.049,1.441-1.049,1.572
			c0.92,1.441,2.621,3.013,5.373,4.847c1.047,1.572,1.963,3.799,2.619,6.942c1.571,6.549,0.784,9.43-4.717,15.849
			c-1.309,1.441-2.751,2.75-4.453,4.322c-5.764,4.585-11.525,7.074-17.553,7.991l-4.322,0.522c-3.143-0.261-4.715-1.047-4.715-2.357
			c0.394-0.917,1.18-1.31,1.965-1.31h0.262l3.537,0.131c3.668-0.262,7.072-1.048,10.086-2.358c3.537-1.571,6.156-4.192,8.121-7.859
			c1.834-3.537,2.75-6.55,2.75-9.038c0-6.417-1.048-10.348-3.535-11.264c-0.524-0.524-1.049-0.917-1.834-0.917
			c-2.229,0.393-5.371,2.358-9.17,5.895l-4.847,5.108c-1.571,1.441-3.93,4.583-7.335,9.431c-3.012,3.929-5.763,7.597-8.251,11.002
			c-7.467,11.658-15.457,21.22-25.149,30.912c-6.288,6.419-10.217,9.824-11.134,10.217c-8.252,7.073-15.719,11.658-22.791,13.754
			c-2.489,1.047-5.37,1.833-8.776,2.75c-5.371,1.178-11.79,2.619-17.684,3.013c-5.894,0.522-8.25,0.393-15.586-1.965
			c-1.048-0.393-2.228-0.787-3.537-1.179c-9.038-4.584-13.491-10.217-13.491-17.421c0-3.537,1.178-7.466,3.667-11.658
			c1.703-2.619,3.798-4.978,6.287-6.417c2.882-2.228,6.943-3.93,12.182-4.978c1.703-0.263,3.799-0.918,5.633-0.787
			c3.274,0.523,5.108,1.44,5.108,3.275c-1.18,3.143-2.489,4.845-3.93,4.845l-7.465-2.619h-2.881
			c-3.013,0.394-6.55,2.358-10.349,5.764c-2.489,4.061-3.929,7.597-3.929,10.61v0.262c0,4.977,2.881,9.693,8.12,14.408
			c2.358,1.31,4.585,2.358,6.68,3.013c4.324,1.047,7.729,0.917,11.921,0.917h3.537c3.144-0.131,9.169-1.179,18.338-3.537
			c3.536-1.049,7.728-3.144,12.705-6.025c3.93-2.752,8.122-6.289,12.837-10.479c10.217-11.002,17.16-20.696,22.923-28.816
			c6.941-9.432,12.574-15.98,16.503-20.697c1.703-3.013,5.24-7.072,10.74-12.443c1.44-0.917,6.156-4.061,11.658-9.824v-0.261
			c0-1.441-4.978-2.62-14.671-3.798c-3.406-0.524-6.68-0.394-10.086-0.263c-6.024,0.655-9.169,1.441-9.3,2.228
			c1.703,2.227,2.489,3.798,2.62,5.108c0.263,3.93-0.392,6.287-2.095,10.085c-2.358,6.942-7.727,11.92-12.705,18.208
			c-2.096,2.358-4.454,4.846-6.811,7.073c-6.288,5.502-11.527,9.3-15.457,11.396c-4.192,2.488-9.562,4.977-16.373,7.728
			c-2.752,0.786-5.241,1.047-7.729,1.047c-5.369,0.524-9.692-4.06-9.562-9.038c-0.261-7.989,4.717-18.6,12.05-25.542
			c1.311-1.441,4.585-4.061,9.824-8.252c4.322-3.798,9.825-7.467,16.504-11.133c6.68-3.669,11.002-5.633,13.098-5.895
			c0.786-0.394,2.751-1.048,5.895-2.097v-0.786c-5.239-1.833-10.217-2.75-14.67-2.75h-3.013c-5.108,0.524-11.002,2.358-17.683,5.632
			l-8.121,7.072c-1.965,1.834-3.275,2.62-3.799,2.62h-0.13c-0.655,0-0.917-0.131-1.18-0.523v-0.262
			c1.441-3.406,5.502-7.334,12.443-11.527c3.406-1.965,8.122-3.799,14.016-5.501c3.275-0.655,6.811-1.179,10.741-1.309h0.653V74.357
			z M95.51,134.348c0.653,3.406,1.571,5.108,2.881,5.108c0.262,0.131,1.572,0.393,3.799,0.655c2.881,0,8.121-1.964,15.98-5.763
			c7.99-5.501,12.706-9.169,14.539-11.003c8.514-8.382,13.753-14.277,15.719-18.076c3.143-5.108,4.847-8.251,4.847-9.431
			l0.654-4.454v-1.571c-0.654-3.8-1.572-5.633-2.619-5.633c-7.99,1.572-14.539,4.061-20.172,7.597
			c-4.322,2.096-8.645,5.109-12.967,8.907c-1.31,0.524-5.371,4.584-12.575,12.182c-4.715,5.502-6.943,8.776-6.943,9.562
			c-1.571,2.358-2.489,6.156-3.143,11.396V134.348z"/>
		<path fill="#FFFFFF" d="M187.557,136.568v0.215c0,2.357-4.287,5.464-12.966,9.321c-7.072,2.465-10.715,4.179-10.715,5.251
			c-0.857,1.393-1.5,3.107-1.5,4.929c0,2.25,0.643,4.393,1.822,5.036c1.714,0.429,3.322,0.322,4.929-0.428
			c2.893-1.072,5.143-2.357,6.75-3.964c2.464-1.607,4.822-3.965,6.857-6.001l1.822-1.5c0.428-0.321,0.643-0.536,0.965-0.536h0.319
			c0.75,0.107,1.072,0.536,1.072,1.179c0,0.75-1.929,2.572-5.786,5.786c-6,5.144-10.501,8.68-13.394,9.323
			c-0.857,0.429-2.358,0.75-4.286,0.75c-2.465,0-4.607-0.643-6.537-2.143c-2.572-2.679-2.572-4.608-2.465-7.5
			c0-3.107,2.465-6.965,7.394-12c1.393-1.286,2.679-2.465,3.858-3.322c3.643-3.108,10.394-6.322,12.965-6.965
			c0-0.322,1.5-0.536,4.5-0.965C185.521,133.032,186.913,134.211,187.557,136.568z M168.161,145.568l0.536,0.108
			c2.036-0.108,5.144-1.393,9.322-3.644c3-2.25,4.5-3.643,4.607-4.179v-0.536c0-0.642-0.429-1.071-1.606-1.393h-0.215
			c-1.179,0-4.072,1.929-8.68,5.465c-1.607,1.393-3,2.679-3.965,3.857L168.161,145.568L168.161,145.568z"/>
		<path fill="#FFFFFF" d="M209.305,133.354c1.93,0,4.071,0.75,6.107,2.464l1.285-0.107h0.43c1.714,0,2.68,0.214,2.68,0.857v0.429
			c0,0.536-2.144,3.858-6.752,9.644c-2.248,4.286-3.964,7.93-5.144,10.929v0.214c0,0.536,0.215,0.858,0.644,0.858h0.75
			c1.285,0,5.465-3.429,12.645-10.18c0.43-0.322,0.75-0.429,1.18-0.429c0.75,0.107,0.964,0.322,0.964,0.75
			c0,0.322-2.894,3.214-8.786,8.894c-1.715,1.929-3.106,3.214-4.285,4.071c-2.572,2.465-5.145,3.643-7.502,3.643
			c-2.035,0-3.215-1.393-4.179-4.393v-0.964c0-0.858-0.106-1.393-0.214-1.929c-0.645,0.321-2.465,1.821-5.68,4.5
			c-3.321,1.929-6.107,3-8.145,3h-0.214c-1.929,0-3.536-1.393-4.822-4.072l-0.214-1.608v-0.214c0-2.786,1.821-6.536,5.25-11.037
			c6.751-6.321,11.465-10.179,14.358-11.572c3.751-2.572,6.75-3.75,9.001-3.75h0.643V133.354z M188.41,161.105h2.035
			c1.394,0,4.716-2.893,10.072-8.68c2.357-2.035,4.394-4.393,6-7.393l4.821-6.108l0.108-0.536c0-1.286-0.858-1.822-2.895-1.822
			c-2.144,0-5.357,2.036-9.965,6.322c-4.07,3.75-7.285,6.965-9.43,9.857c-1.285,2.143-1.93,4.501-1.93,6.751
			C187.339,160.569,187.768,161.105,188.41,161.105z"/>
		<path fill="#FFFFFF" d="M279.163,88.029c3,0.214,4.5,0.964,4.5,1.928c0.43,0.429,0.644,0.965,0.75,1.929
			c-0.32,2.143-0.964,3.644-1.714,4.5c-1.072,1.5-2.572,3.322-4.286,5.358c-11.144,11.144-17.466,17.251-18.858,18.322
			c-1.93,2.036-4.929,4.607-9.106,7.822c-3.216,2.571-5.251,4.286-5.896,5.036c-1.82,2.25-2.998,3.322-3.105,3.322v0.536h0.428
			c5.572-3.001,9.107-4.501,10.607-4.608c3.644,0.536,5.466,1.5,5.466,3v0.322c0,3-3.216,5.786-9.322,8.465
			c-2.464,1.072-9.321,2.572-9.001,2.572c5.037-0.536,6.965,0.964,6.965,3.322c0,4.929-6.535,5.679-6.535,10.071
			c0.106,1.501,0.643,1.929,2.785,1.929c0.857,0,2.465-0.643,5.036-2.893c1.5-0.964,4.394-3.643,8.466-7.93
			c0.749-0.75,1.393-1.071,2.143-1.071l0.644,0.75v0.107c-0.215,1.5-4.5,5.465-11.679,11.251c-3.645,2.786-6.537,4.179-8.787,4.179
			h-0.321c-3.106,0.107-5.144-1.608-5.786-4.93v-0.964c0-1.607,1.5-3.643,4.394-6.429c1.608-2.036,3.215-2.465,3.215-4.287
			c0-1.178-1.821-1.393-3.751-1.5c-3.428,0.75-5.68,2.036-6.965,3.857l-2.463,4.179l-4.93,8.571
			c-1.715,1.929-3.322,2.679-4.287,2.679h-1.178c-0.965,0-1.501-0.321-1.822-1.393c0-1.5,1.287-4.179,3.75-7.608l5.357-8.25v-0.536
			h-0.32c-1.715,1.822-2.894,2.786-3.43,2.786h-0.215l-0.643-0.642v-0.108c0-0.75,1.394-2.357,4.18-5.143
			c0.107-0.429,3.214-3.643,9.535-9.75c2.465-2.679,5.144-6,8.252-10.501c1.178-1.5,3.105-4.179,5.785-8.144l4.5-5.25l5.787-6.858
			c1.928-2.143,5.25-5.679,9.535-10.822c5.786-4.715,9.643-7.179,11.895-7.179h0.427V88.029z M235.553,145.89
			c7.5-2.357,13.502-4.822,15.002-6.429l0.321-1.179v-0.322c-0.108-1.178-0.644-1.607-1.394-1.607h-0.215
			c-1.715,0-4.606,0.322-9.75,4.393c-0.75,0.108-4.072,3.537-5.357,4.822C232.445,147.176,235.23,145.997,235.553,145.89z
			 M248.518,124.888h0.322l11.786-9.75c5.465-5.571,8.894-8.679,10.394-9.75c5.037-4.714,7.931-8.572,8.681-11.572l0.214-0.75
			v-0.107c0-0.75-0.536-1.072-1.286-1.072h-0.106c-3.965,1.608-8.465,5.787-13.502,12.751l-6.75,7.608
			c-3.535,4.072-6.535,7.822-8.894,11.357c-0.644,0.322-0.856,0.643-0.856,1.179v0.106H248.518z"/>
	</g>
	<path fill="#FFFFFF" d="M285.025,74.434c0.69-1.027,2.25-3.726,2.809-4.609c-2.289-0.798-4.332-2.051-6.385-3.455
		c-0.494,0.701-1.977,3.222-2.583,4.085C280.779,72.066,282.747,73.675,285.025,74.434z"/>
	<path fill="#FFFFFF" d="M278.212,71.433c-19.146,27.228-69.827,98.875-72.925,113.019c31.936-44.868,64.963-89.043,79.005-108.854
		C280.641,74.673,280.184,73.003,278.212,71.433z"/>
	<path fill="#FFFFFF" d="M288.186,68.127c0.312-0.686,0.533-1.28,0.621-1.736c1.528-7.948-5.897-1.925-6.604-1.339
		C284.059,66.379,285.986,67.614,288.186,68.127z"/>
</g>
</svg>
