<?xml version="1.0" encoding="utf-8"?>
<!-- Generator: Adobe Illustrator 15.1.0, SVG Export Plug-In . SVG Version: 6.00 Build 0)  -->
<!DOCTYPE svg PUBLIC "-//W3C//DTD SVG 1.1//EN" "http://www.w3.org/Graphics/SVG/1.1/DTD/svg11.dtd">
<svg version="1.1" xmlns="http://www.w3.org/2000/svg" xmlns:xlink="http://www.w3.org/1999/xlink" x="0px" y="0px" width="144px"
	 height="144px" viewBox="0 0 144 144" enable-background="new 0 0 144 144" xml:space="preserve">
<g id="Layer_1" display="none">
	<path display="inline" d="M71.8,20.319c-28.581,0-51.753,23.172-51.753,51.753c0,28.587,23.172,51.752,51.753,51.752
		c28.583,0,51.752-23.165,51.752-51.752C123.553,43.491,100.384,20.319,71.8,20.319z M82.889,72.091h-7.253
		c0,11.585,0,25.857,0,25.857H64.889c0,0,0-14.126,0-25.857h-5.11v-9.135h5.11v-5.914c0-4.232,2.01-10.847,10.845-10.847l7.96,0.032
		v8.87c0,0-4.841,0-5.777,0c-0.94,0-2.28,0.468-2.28,2.488v5.371h8.194L82.889,72.091z"/>
</g>
<g id="Layer_4" display="none">
	<path display="inline" d="M71.433,20.319c-28.401,0-51.43,23.027-51.43,51.429c0,28.407,23.028,51.428,51.43,51.428
		c28.401,0,51.428-23.021,51.428-51.428C122.861,43.346,99.834,20.319,71.433,20.319z M76.744,83.197
		c-3.189,0-6.192-1.721-7.217-3.678c0,0-1.717,6.805-2.078,8.117c-1.28,4.646-5.044,9.291-5.332,9.666
		c-0.206,0.266-0.656,0.184-0.703-0.166c-0.083-0.592-1.042-6.451,0.087-11.227c0.568-2.396,3.801-16.098,3.801-16.098
		s-0.944-1.883-0.944-4.67c0-4.381,2.539-7.645,5.7-7.645c2.688,0,3.98,2.013,3.98,4.431c0,2.699-1.716,6.742-2.604,10.483
		C70.692,75.543,73,78.1,76.094,78.1c5.596,0,9.367-7.187,9.367-15.706c0-6.475-4.361-11.32-12.293-11.32
		c-8.958,0-14.542,6.686-14.542,14.151c0,2.574,0.76,4.388,1.949,5.788c0.547,0.646,0.622,0.908,0.424,1.65
		c-0.145,0.54-0.465,1.852-0.603,2.368c-0.194,0.752-0.804,1.016-1.479,0.738c-4.127-1.68-6.05-6.203-6.05-11.288
		c0-8.387,7.075-18.449,21.113-18.449c11.279,0,18.703,8.162,18.703,16.925C92.684,74.541,86.24,83.197,76.744,83.197z"/>
</g>
<g id="Layer_3" display="none">
	<g display="inline">
		<path d="M74.887,68.616v-0.105c-0.019,0.037-0.047,0.075-0.071,0.105H74.887z"/>
		<path d="M71.806,20.969c-28.405,0-51.43,23.026-51.43,51.429c0,28.407,23.024,51.428,51.43,51.428
			c28.401,0,51.43-23.021,51.43-51.428C123.235,43.995,100.207,20.969,71.806,20.969z M57.768,96.975H46.74V63.813h11.027V96.975z
			 M52.253,59.283h-0.071c-3.698,0-6.09-2.549-6.09-5.733c0-3.25,2.467-5.73,6.232-5.73c3.773,0,6.098,2.48,6.165,5.73
			C58.489,56.734,56.098,59.283,52.253,59.283z M97.52,96.975H86.495V79.235c0-4.46-1.595-7.504-5.586-7.504
			c-3.042,0-4.859,2.061-5.656,4.035c-0.292,0.709-0.366,1.689-0.366,2.688v18.52h-11.02c0,0,0.141-30.051,0-33.161h11.02v4.697
			c1.471-2.266,4.088-5.474,9.938-5.474c7.251,0,12.694,4.732,12.694,14.92V96.975z"/>
	</g>
</g>
<g id="Layer_2">
	<path d="M71.432,21.373c-28.401,0-51.429,23.027-51.429,51.43c0,28.407,23.027,51.428,51.429,51.428s51.429-23.021,51.429-51.428
		C122.86,44.4,99.833,21.373,71.432,21.373z M91.882,62.317c0.022,0.451,0.032,0.904,0.032,1.362
		c0,13.944-10.613,30.021-30.021,30.021c-5.961,0-11.505-1.746-16.176-4.74c0.829,0.094,1.668,0.145,2.518,0.145
		c4.947,0,9.492-1.683,13.102-4.514c-4.613-0.089-8.512-3.139-9.853-7.326c0.644,0.119,1.303,0.188,1.984,0.188
		c0.963,0,1.896-0.132,2.777-0.371c-4.82-0.973-8.462-5.236-8.462-10.346c0-0.044,0-0.089,0-0.132
		c1.425,0.791,3.05,1.262,4.78,1.318c-2.832-1.89-4.692-5.123-4.692-8.783c0-1.934,0.521-3.748,1.427-5.305
		C54.5,60.221,62.278,64.42,71.046,64.86c-0.18-0.773-0.273-1.576-0.273-2.405c0-5.826,4.724-10.547,10.554-10.547
		c3.031,0,5.775,1.281,7.699,3.327c2.401-0.47,4.662-1.35,6.702-2.562c-0.791,2.468-2.461,4.533-4.64,5.839
		c2.135-0.251,4.169-0.822,6.058-1.657C95.733,58.971,93.944,60.829,91.882,62.317z"/>
</g>
</svg>
